# xmcd
#
# Track frame offsets:
# 182
# 68185
# 170147
# 210660
# 228685
#
# Disc length: 3397 seconds
#
# Revision: 0
# Processed by: cddbd v1.4PL0 Copyright (c) Steve Scherf et al.
# Submitted via: Audion 3.0.2 (http://www.panic.com/audion/)
#
DISCID=480d4305
DTITLE=Bembeya Jazz National - Regard sur le Passé
DYEAR=1900
DGENRE=
TTITLE0=Regard sur le Passé I
TTITLE1=Regard sur le Passé II
TTITLE2=Akukuwe
TTITLE3=N'Temenna
TTITLE4=N'zema
EXTD=
EXTT0=
EXTT1=
EXTT2=
EXTT3=
EXTT4=
PLAYORDER=
